<svg xmlns="http://www.w3.org/2000/svg" viewBox="0 0 24 24" fill="currentColor" class="text-gray-900 dark:text-white">
  <path d="M17.6915026,9.66539267 L3.50612381,9.66539267 C3.19218622,9.66539267 3.03521743,9.51389889 3.03521743,9.20002473 L3.03521743,3.50612381 C3.03521743,3.34915502 3.34915502,3.03521743 3.50612381,3.03521743 L17.6915026,3.03521743 C17.9054402,3.03521743 18.0624079,3.34915502 18.0624079,3.50612381 L18.0624079,9.20002473 C18.0624079,9.51389889 17.9054402,9.66539267 17.6915026,9.66539267 Z"/>
  <path d="M6.53399683,12.1622754 L6.53399683,17.6915026 C6.53399683,17.9054402 6.67832167,18.2193778 6.99225083,18.2193778 L9.4891233,18.2193778 L9.4891233,12.1622754 Z"/>
  <path d="M10.1624975,12.1622754 L10.1624975,18.2193778 L12.659365,18.2193778 C12.8733025,18.2193778 13.1872401,17.9054402 13.1872401,17.6915026 L13.1872401,12.1622754 Z"/>
  <path d="M13.8625769,12.1622754 L13.8625769,18.2193778 L16.3594494,18.2193778 C16.5734945,18.2193778 16.8874321,17.9054402 16.8874321,17.6915026 L16.8874321,12.1622754 Z"/>
</svg>
