<svg width="50" height="50" viewBox="0 0 50 50" fill="none" xmlns="http://www.w3.org/2000/svg">
<path d="M14.9038 2.2662C13.75 3.30601 12.8205 6.81536 12.8205 9.2849C12.8205 13.4441 12.5641 13.7041 8.58974 13.7041C2.5641 13.7041 0 16.9535 0 24.882C0 33.4604 2.5641 36.4499 8.58974 36.0599C13.2051 35.67 12.8205 35.8 12.8205 40.7391C12.8205 43.7285 12.7885 47.075 13.9423 47.9848C15.3846 50.4224 34.6154 50.9101 36.0577 47.9855C36.9551 47.2057 37.1795 43.5985 37.1795 40.8691V35.8L42.5484 36.0599C49.0385 36.0599 50 35.0201 50 24.882C50 15.7837 48.7179 13.7041 42.0513 13.7041C37.3077 13.7041 37.1795 13.5741 37.1795 8.765C37.1795 6.03551 36.3451 3.33676 35.641 2.2662C33.6538 -0.755401 16.3462 -0.7554 14.9038 2.2662ZM26.9231 13.0542C26.9231 14.094 27.5641 17.9933 28.3333 21.7626C29.4872 26.8317 30.1282 28.0014 30.7692 26.1818C31.4103 24.3621 32.8205 23.7122 36.282 23.7122C42.0513 23.7122 42.6923 25.9218 36.9231 25.9218C33.4615 26.0518 32.5641 26.7017 31.5385 30.211C30.8974 32.5506 30 34.5002 29.359 34.5002C28.8462 34.5002 27.6923 30.341 26.7949 25.142L25.1282 15.9137L23.2051 21.8926C20.641 29.3012 19.8718 30.0811 17.1795 27.8715C16.0256 26.8317 13.7179 26.3118 12.1795 26.4417C10.5128 26.7017 8.84615 26.1818 8.20513 25.272C7.5641 24.1022 8.97436 23.8422 13.7179 24.3621L20.1282 25.012L21.7949 18.3832C22.6923 14.7439 23.7179 11.3645 23.9744 10.7146C24.7436 9.2849 26.9231 10.9746 26.9231 13.0542Z" fill="white"/>
</svg>
